<?xml version="1.0" standalone="no"?>
<!DOCTYPE svg PUBLIC "-//W3C//DTD SVG 20010904//EN"
 "http://www.w3.org/TR/2001/REC-SVG-20010904/DTD/svg10.dtd">
<svg version="1.0" xmlns="http://www.w3.org/2000/svg"
 width="512.000000pt" height="512.000000pt" viewBox="0 0 512.000000 512.000000"
 preserveAspectRatio="xMidYMid meet">

<g transform="translate(0.000000,512.000000) scale(0.100000,-0.100000)"
fill="#000000" stroke="none">
<path d="M827 5104 c-361 -65 -659 -323 -776 -671 -53 -157 -52 -106 -48
-1914 l2 -1674 23 -85 c27 -100 93 -243 153 -331 87 -129 246 -264 392 -333
155 -73 292 -98 522 -94 l167 3 428 1143 c235 629 430 1146 434 1149 9 9 1754
423 1783 423 27 0 50 -39 37 -63 -5 -8 -541 -585 -1192 -1281 -651 -696 -1206
-1291 -1234 -1321 l-50 -55 1403 3 1404 2 85 23 c100 27 242 93 331 153 167
113 311 305 378 506 53 157 52 106 48 1914 l-2 1674 -23 85 c-46 172 -144 343
-268 467 -147 147 -330 241 -539 278 -126 22 -3336 21 -3458 -1z"/>
</g>
</svg>
