<svg width="201" height="41" viewBox="0 0 201 41" fill="none" xmlns="http://www.w3.org/2000/svg">
<path d="M189.234 20.176C189.234 19.3436 189.465 18.6064 189.926 17.9645C190.387 17.3225 191.029 16.8211 191.852 16.46C192.674 16.0889 193.617 15.9033 194.68 15.9033C195.723 15.9033 196.646 16.0989 197.448 16.4901C198.261 16.8812 198.908 17.4228 199.389 18.1149C199.871 18.807 200.146 19.5993 200.217 20.492H199.073C198.993 19.7899 198.757 19.1731 198.366 18.6415C197.985 18.0999 197.473 17.6786 196.831 17.3777C196.19 17.0668 195.457 16.9113 194.635 16.9113C193.813 16.9113 193.08 17.0517 192.438 17.3326C191.807 17.6034 191.305 17.9795 190.934 18.4609C190.573 18.9323 190.392 19.474 190.392 20.0858C190.392 20.7778 190.633 21.3546 191.114 21.8159C191.596 22.2773 192.398 22.6986 193.522 23.0797L194.876 23.5461C196.3 24.0275 197.313 24.5842 197.915 25.2161C198.527 25.8379 198.832 26.6403 198.832 27.6232C198.832 28.4858 198.587 29.2531 198.095 29.9251C197.614 30.5871 196.947 31.1086 196.094 31.4898C195.242 31.8609 194.259 32.0464 193.146 32.0464C192.002 32.0464 190.984 31.8408 190.091 31.4296C189.199 31.0183 188.477 30.4567 187.925 29.7446C187.383 29.0224 187.072 28.2 186.992 27.2772H188.166C188.326 28.4005 188.863 29.3083 189.775 30.0003C190.688 30.6823 191.832 31.0234 193.206 31.0234C194.078 31.0234 194.846 30.8829 195.508 30.6021C196.18 30.3112 196.701 29.9151 197.072 29.4136C197.453 28.902 197.644 28.3203 197.644 27.6684C197.644 26.9262 197.403 26.3294 196.922 25.878C196.44 25.4267 195.568 24.9804 194.304 24.539L192.935 24.0727C191.651 23.6313 190.713 23.0998 190.122 22.4779C189.53 21.8561 189.234 21.0888 189.234 20.176Z" fill="#B29CAB"/>
<path d="M186.706 16.144L183.381 31.7907H182.268L182.915 28.7215H182.87C182.509 29.3434 182.042 29.91 181.471 30.4216C180.899 30.9231 180.247 31.3192 179.515 31.6101C178.783 31.901 177.985 32.0464 177.123 32.0464C176.09 32.0464 175.192 31.8458 174.43 31.4446C173.668 31.0334 173.081 30.4767 172.67 29.7746C172.258 29.0726 172.053 28.2902 172.053 27.4277C172.053 27.1568 172.063 26.876 172.083 26.5851C172.113 26.2842 172.158 25.9884 172.218 25.6975L174.264 16.144H175.423L173.437 25.5019C173.377 25.7627 173.327 26.0435 173.286 26.3444C173.256 26.6353 173.241 26.8961 173.241 27.1268C173.241 28.3003 173.612 29.238 174.355 29.9401C175.107 30.6322 176.14 30.9782 177.454 30.9782C178.467 30.9782 179.395 30.7425 180.237 30.2711C181.08 29.7997 181.782 29.1729 182.343 28.3905C182.905 27.5982 183.286 26.7306 183.487 25.7878L185.548 16.144H186.706Z" fill="#B29CAB"/>
<path d="M164.214 24.9302H164.154L157.76 31.7907H156.301L163.658 23.8921L159.596 16.144H160.859L164.44 23.0496H164.5L170.939 16.144H172.384L164.997 24.0727L169.059 31.7907H167.795L164.214 24.9302Z" fill="#B29CAB"/>
<path d="M144.942 23.1398H156.06C156.1 22.9592 156.126 22.7887 156.136 22.6283C156.156 22.4678 156.166 22.2572 156.166 21.9964C156.166 21.0034 155.98 20.1258 155.609 19.3635C155.238 18.6013 154.701 18.0095 153.999 17.5882C153.297 17.157 152.44 16.9413 151.427 16.9413C150.343 16.9413 149.35 17.2071 148.448 17.7387C147.545 18.2703 146.788 19.0025 146.176 19.9352C145.574 20.868 145.163 21.9362 144.942 23.1398ZM149.621 32.0463C148.347 32.0463 147.249 31.7805 146.326 31.2489C145.404 30.7073 144.697 29.9501 144.205 28.9772C143.724 28.0043 143.483 26.8759 143.483 25.5921C143.483 24.218 143.678 22.9442 144.07 21.7707C144.471 20.5872 145.028 19.5591 145.74 18.6865C146.462 17.8039 147.309 17.1168 148.282 16.6254C149.265 16.1339 150.328 15.8882 151.472 15.8882C152.675 15.8882 153.713 16.1389 154.586 16.6404C155.469 17.1419 156.146 17.854 156.617 18.7768C157.098 19.6995 157.339 20.7978 157.339 22.0716C157.339 22.4126 157.319 22.7737 157.279 23.1548C157.239 23.5259 157.184 23.8519 157.114 24.1327H144.777C144.737 24.4236 144.707 24.6844 144.686 24.9151C144.666 25.1357 144.656 25.3313 144.656 25.5018C144.656 26.6352 144.857 27.6131 145.258 28.4356C145.669 29.248 146.251 29.8799 147.003 30.3312C147.756 30.7725 148.648 30.9932 149.681 30.9932C151.015 30.9932 152.164 30.6722 153.127 30.0303C154.09 29.3784 154.787 28.4757 155.218 27.3222H156.391C156.09 28.2751 155.614 29.1076 154.962 29.8197C154.32 30.5318 153.543 31.0834 152.63 31.4746C151.727 31.8557 150.724 32.0463 149.621 32.0463Z" fill="#B29CAB"/>
<path d="M126.888 31.7906L130.213 16.1439H131.356L130.695 19.2733H130.755C131.346 18.2703 132.124 17.4579 133.087 16.836C134.06 16.2041 135.188 15.8882 136.472 15.8882C137.475 15.8882 138.357 16.0938 139.12 16.505C139.892 16.9062 140.494 17.4579 140.925 18.16C141.366 18.852 141.587 19.6494 141.587 20.5521C141.587 20.8129 141.572 21.0837 141.542 21.3645C141.512 21.6353 141.467 21.9161 141.406 22.207L139.36 31.7906H138.187L140.173 22.4327C140.233 22.1418 140.283 21.861 140.323 21.5902C140.363 21.3194 140.383 21.0636 140.383 20.8229C140.383 19.6594 139.997 18.7266 139.225 18.0245C138.453 17.3124 137.41 16.9564 136.096 16.9564C135.103 16.9564 134.19 17.1871 133.357 17.6484C132.535 18.1098 131.843 18.7367 131.281 19.529C130.72 20.3114 130.338 21.184 130.138 22.1468L128.062 31.7906H126.888Z" fill="#B29CAB"/>
<path d="M111.302 32.0764C109.988 32.0764 108.834 31.7404 107.842 31.0684C106.849 30.3964 106.071 29.4536 105.51 28.24C104.958 27.0164 104.682 25.5921 104.682 23.9673V23.9523C104.682 22.3174 104.963 20.8982 105.525 19.6946C106.086 18.481 106.859 17.5381 107.842 16.8661C108.834 16.1941 109.983 15.8581 111.287 15.8581C112.109 15.8581 112.872 16.0036 113.574 16.2944C114.276 16.5853 114.888 17.0015 115.409 17.5432C115.941 18.0747 116.352 18.7016 116.643 19.4238H116.703V12.324H118.674V31.7906H116.703V28.5259H116.628C116.337 29.248 115.931 29.8749 115.409 30.4065C114.888 30.928 114.281 31.3393 113.589 31.6401C112.897 31.931 112.134 32.0764 111.302 32.0764ZM111.678 30.3012C112.661 30.3012 113.528 30.0404 114.281 29.5188C115.043 28.9872 115.635 28.245 116.056 27.2922C116.487 26.3293 116.703 25.221 116.703 23.9673V23.9523C116.703 22.6985 116.487 21.5952 116.056 20.6424C115.625 19.6896 115.033 18.9524 114.281 18.4308C113.528 17.8992 112.661 17.6334 111.678 17.6334C110.675 17.6334 109.797 17.8942 109.045 18.4158C108.303 18.9273 107.726 19.6595 107.315 20.6123C106.914 21.5551 106.713 22.6684 106.713 23.9523V23.9673C106.713 25.2511 106.914 26.3694 107.315 27.3223C107.726 28.2751 108.303 29.0123 109.045 29.5339C109.797 30.0454 110.675 30.3012 111.678 30.3012Z" fill="white"/>
<path d="M89.4868 31.7906V16.144H91.4727V18.822H91.5179C91.9191 17.9694 92.5509 17.2673 93.4135 16.7157C94.2761 16.154 95.3342 15.8732 96.588 15.8732C98.3231 15.8732 99.6772 16.3947 100.65 17.4378C101.623 18.4809 102.109 19.9252 102.109 21.7707V31.7906H100.124V22.1017C100.124 20.6474 99.7725 19.5391 99.0704 18.7768C98.3683 18.0145 97.3502 17.6334 96.0163 17.6334C95.1035 17.6334 94.3062 17.839 93.6241 18.2502C92.9421 18.6615 92.4105 19.2332 92.0294 19.9654C91.6583 20.6875 91.4727 21.54 91.4727 22.523V31.7906H89.4868Z" fill="white"/>
<path d="M80.1743 32.0765C78.7099 32.0765 77.4462 31.7505 76.383 31.0986C75.3198 30.4366 74.4974 29.5038 73.9157 28.3002C73.344 27.0866 73.0581 25.6573 73.0581 24.0124V23.9974C73.0581 22.3625 73.344 20.9333 73.9157 19.7096C74.4974 18.486 75.3098 17.5382 76.3529 16.8662C77.396 16.1942 78.6147 15.8582 80.0088 15.8582C81.403 15.8582 82.6065 16.1841 83.6196 16.8361C84.6426 17.478 85.43 18.3857 85.9816 19.5592C86.5433 20.7327 86.8241 22.1018 86.8241 23.6664V24.4487H74.0511V22.869H85.8612L84.8532 24.2983V23.5461C84.8532 22.2622 84.6426 21.184 84.2214 20.3114C83.8101 19.4288 83.2384 18.7618 82.5063 18.3105C81.7841 17.8591 80.9466 17.6334 79.9938 17.6334C79.0409 17.6334 78.1934 17.8641 77.4512 18.3255C76.709 18.7869 76.1222 19.4639 75.6909 20.3566C75.2697 21.2392 75.0591 22.3024 75.0591 23.5461V24.2983C75.0591 25.5721 75.2697 26.6553 75.6909 27.548C76.1222 28.4406 76.724 29.1227 77.4963 29.5941C78.2686 30.0655 79.1763 30.3012 80.2194 30.3012C80.9817 30.3012 81.6637 30.1858 82.2655 29.9551C82.8673 29.7144 83.3688 29.3784 83.77 28.9471C84.1712 28.5159 84.4571 28.0144 84.6276 27.4427L84.6727 27.3073H86.6285L86.5984 27.4577C86.458 28.1197 86.2023 28.7365 85.8312 29.3082C85.4701 29.8699 85.0087 30.3614 84.447 30.7826C83.8854 31.1938 83.2434 31.5148 82.5213 31.7455C81.7991 31.9661 81.0168 32.0765 80.1743 32.0765Z" fill="white"/>
<path d="M65.2496 32.0765C64.0661 32.0765 63.033 31.8809 62.1504 31.4897C61.2778 31.0885 60.5807 30.5419 60.0592 29.8498C59.5376 29.1477 59.2267 28.3353 59.1264 27.4126L59.1113 27.2772H61.0822L61.1123 27.4126C61.2728 28.3253 61.7091 29.0525 62.4212 29.5941C63.1333 30.1257 64.0761 30.3914 65.2496 30.3914C66.052 30.3914 66.739 30.2811 67.3108 30.0605C67.8925 29.8398 68.3388 29.5239 68.6497 29.1126C68.9707 28.6914 69.1312 28.2099 69.1312 27.6683V27.6533C69.1312 26.9713 68.9205 26.4296 68.4993 26.0284C68.078 25.6273 67.3408 25.3013 66.2877 25.0505L63.9257 24.4939C62.9427 24.2532 62.1253 23.9472 61.4734 23.5761C60.8315 23.205 60.35 22.7537 60.0291 22.2221C59.7181 21.6805 59.5627 21.0486 59.5627 20.3265V20.3114C59.5627 19.4388 59.7984 18.6715 60.2698 18.0096C60.7512 17.3376 61.4082 16.811 62.2406 16.4299C63.0832 16.0487 64.046 15.8582 65.1293 15.8582C66.2426 15.8582 67.2105 16.0588 68.0329 16.4599C68.8654 16.8511 69.5223 17.3977 70.0038 18.0998C70.4952 18.7919 70.7761 19.5893 70.8463 20.492L70.8613 20.6575H68.9657L68.9506 20.5521C68.8303 19.6394 68.4341 18.9123 67.7621 18.3706C67.1001 17.819 66.2225 17.5432 65.1293 17.5432C64.4171 17.5432 63.7953 17.6585 63.2637 17.8892C62.7321 18.1099 62.3209 18.4258 62.03 18.837C61.7392 19.2382 61.5937 19.7046 61.5937 20.2362V20.2512C61.5937 20.6625 61.689 21.0336 61.8796 21.3646C62.0802 21.6855 62.3911 21.9613 62.8124 22.192C63.2436 22.4227 63.8053 22.6233 64.4974 22.7938L66.8444 23.3505C68.409 23.7216 69.5173 24.2381 70.1693 24.9001C70.8312 25.552 71.1622 26.4246 71.1622 27.5179V27.5329C71.1622 28.4256 70.9065 29.2129 70.3949 29.895C69.8834 30.577 69.1813 31.1136 68.2887 31.5048C67.406 31.8859 66.393 32.0765 65.2496 32.0765Z" fill="white"/>
<path d="M50.5659 32.0765C49.1015 32.0765 47.8378 31.7505 46.7746 31.0986C45.7114 30.4366 44.889 29.5038 44.3073 28.3002C43.7356 27.0866 43.4497 25.6573 43.4497 24.0124V23.9974C43.4497 22.3625 43.7356 20.9333 44.3073 19.7096C44.889 18.486 45.7014 17.5382 46.7445 16.8662C47.7876 16.1942 49.0063 15.8582 50.4004 15.8582C51.7946 15.8582 52.9982 16.1841 54.0112 16.8361C55.0342 17.478 55.8216 18.3857 56.3732 19.5592C56.9349 20.7327 57.2157 22.1018 57.2157 23.6664V24.4487H44.4427V22.869H56.2528L55.2448 24.2983V23.5461C55.2448 22.2622 55.0342 21.184 54.613 20.3114C54.2017 19.4288 53.63 18.7618 52.8979 18.3105C52.1757 17.8591 51.3382 17.6334 50.3854 17.6334C49.4325 17.6334 48.585 17.8641 47.8428 18.3255C47.1006 18.7869 46.5138 19.4639 46.0825 20.3566C45.6613 21.2392 45.4507 22.3024 45.4507 23.5461V24.2983C45.4507 25.5721 45.6613 26.6553 46.0825 27.548C46.5138 28.4406 47.1156 29.1227 47.8879 29.5941C48.6602 30.0655 49.5679 30.3012 50.611 30.3012C51.3733 30.3012 52.0553 30.1858 52.6571 29.9551C53.2589 29.7144 53.7604 29.3784 54.1616 28.9471C54.5628 28.5159 54.8487 28.0144 55.0192 27.4427L55.0643 27.3073H57.0201L56.99 27.4577C56.8496 28.1197 56.5939 28.7365 56.2228 29.3082C55.8617 29.8699 55.4003 30.3614 54.8386 30.7826C54.277 31.1938 53.635 31.5148 52.9129 31.7455C52.1907 31.9661 51.4084 32.0765 50.5659 32.0765Z" fill="white"/>
<path d="M35.8672 31.7906V16.144H37.8531V18.9574H37.8982C38.1791 17.9945 38.6505 17.2373 39.3125 16.6856C39.9845 16.134 40.7969 15.8582 41.7497 15.8582C42.0105 15.8582 42.2512 15.8782 42.4719 15.9183C42.6925 15.9585 42.863 15.9986 42.9834 16.0387V17.9795C42.853 17.9193 42.6574 17.8691 42.3966 17.829C42.1359 17.7789 41.8299 17.7538 41.4789 17.7538C40.7467 17.7538 40.1048 17.9343 39.5532 18.2954C39.0116 18.6465 38.5903 19.148 38.2894 19.7999C37.9985 20.4518 37.8531 21.2191 37.8531 22.1018V31.7906H35.8672Z" fill="white"/>
<path d="M28.6346 8.71756L24.1096 20.8203C24.0815 20.8954 24.0179 20.9516 23.9398 20.9701L15.2171 23.0418C14.9853 23.0968 14.8231 22.8175 14.9858 22.6434L28.2335 8.46902C28.4131 8.2768 28.7267 8.4711 28.6346 8.71756Z" fill="url(#paint0_linear_172_176)"/>
<path d="M15.104 35.7498L19.6289 23.6471C19.657 23.572 19.7206 23.5156 19.7986 23.4971L28.5213 21.4255C28.7532 21.3704 28.9154 21.6498 28.7527 21.8239L15.5051 35.9982C15.3255 36.1905 15.0118 35.9962 15.104 35.7498Z" fill="#D9D9D9"/>
<path d="M2.1308 12.3889C6.98247 1.75212 19.5384 -2.93763 30.1753 1.91399L29.5172 3.35676C19.6771 -1.13142 8.06177 3.20704 3.57356 13.047C-0.91464 22.887 3.42387 34.5025 13.2638 38.9907L12.6057 40.4335C1.96895 35.5818 -2.72085 23.0258 2.1308 12.3889Z" fill="url(#paint1_linear_172_176)"/>
<defs>
<linearGradient id="paint0_linear_172_176" x1="29.035" y1="36.0761" x2="14.9553" y2="36.7817" gradientUnits="userSpaceOnUse">
<stop stop-color="#FF02B8"/>
<stop offset="1" stop-color="#7F26C6"/>
</linearGradient>
<linearGradient id="paint1_linear_172_176" x1="13.2232" y1="39.8435" x2="-5.98419" y2="32.215" gradientUnits="userSpaceOnUse">
<stop stop-color="#FF02B8"/>
<stop offset="1" stop-color="#7F26C6"/>
</linearGradient>
</defs>
</svg>
